<?xml version="1.0" standalone="no"?>
<!DOCTYPE svg PUBLIC "-//W3C//DTD SVG 20010904//EN"
 "http://www.w3.org/TR/2001/REC-SVG-20010904/DTD/svg10.dtd">
<svg version="1.0" xmlns="http://www.w3.org/2000/svg"
 width="512.000000pt" height="512.000000pt" viewBox="0 0 512.000000 512.000000"
 preserveAspectRatio="xMidYMid meet">

<g transform="translate(0.000000,512.000000) scale(0.100000,-0.100000)"
fill="#000000" stroke="none">
<path d="M2329 5105 c-340 -41 -674 -184 -940 -401 -102 -83 -266 -259 -341
-364 -213 -300 -337 -685 -338 -1046 0 -264 85 -543 300 -979 289 -588 771
-1320 1408 -2140 69 -88 128 -163 132 -168 12 -14 459 574 731 963 604 863
959 1526 1086 2025 31 124 42 344 23 492 -96 785 -667 1417 -1431 1587 -213
47 -416 57 -630 31z m872 -1011 c332 -255 614 -476 627 -490 31 -36 29 -79 -7
-115 l-29 -29 -156 0 -156 0 0 -526 0 -526 -29 -29 -29 -29 -866 0 -865 0 -28
24 -28 24 -3 531 -3 531 -153 0 c-138 0 -156 2 -179 20 -30 24 -42 66 -28 101
10 28 1232 974 1266 981 11 2 29 2 41 0 11 -2 292 -213 625 -468z"/>
<path d="M2088 3997 l-458 -352 53 -3 c80 -4 96 -10 117 -45 19 -31 20 -53 20
-550 l0 -517 183 2 182 3 3 341 2 342 26 26 27 26 311 0 c348 0 347 0 366 -68
6 -22 10 -167 10 -355 l0 -317 183 2 182 3 5 533 5 533 25 19 c17 13 45 20 89
22 l63 3 -455 350 c-251 193 -462 351 -469 352 -7 1 -219 -156 -470 -350z"/>
<path d="M2370 2810 l0 -280 185 0 185 0 0 280 0 280 -185 0 -185 0 0 -280z"/>
</g>
</svg>
